<svg width="194" height="34" viewBox="0 0 194 34" fill="none" xmlns="http://www.w3.org/2000/svg">
<path d="M41.2859 0H7.34375V26.3735H0V33.9421H41.2859V7.56865H48.8545V0H41.2859ZM35.4559 12.6461H31.0098V24.756H13.4073V21.296H17.7928V9.18617H35.4559V12.6461Z" fill="#0019FF"/>
<path d="M64.0004 20.1801C62.9926 20.1996 61.9866 20.0889 61.0072 19.8509C60.287 19.6721 59.609 19.3535 59.0118 18.913C58.5306 18.5421 58.1385 18.0683 57.8644 17.5262C57.6044 16.9898 57.4391 16.4127 57.3755 15.8201L60.6979 15.0618C60.7932 15.589 61.0083 16.0874 61.3265 16.5185C61.6215 16.8833 62.0169 17.1538 62.4639 17.2967C62.989 17.4659 63.5386 17.5468 64.0902 17.5362C64.7793 17.588 65.4694 17.4499 66.0856 17.137C66.2834 17.0194 66.446 16.851 66.5566 16.6492C66.6671 16.4474 66.7215 16.2196 66.7142 15.9897C66.7274 15.6361 66.6297 15.2872 66.4348 14.9919C66.1782 14.657 65.8324 14.4011 65.4371 14.2536C64.702 13.9789 63.9393 13.7849 63.1623 13.6749C62.0392 13.5134 60.9484 13.1767 59.9297 12.6772C59.2221 12.3403 58.639 11.7886 58.2635 11.1008C57.9225 10.4134 57.7546 9.653 57.7746 8.88588C57.7398 8.25259 57.8608 7.62044 58.1269 7.04472C58.393 6.469 58.7962 5.96726 59.3011 5.58342C60.7108 4.71455 62.3589 4.313 64.0103 4.43604C65.1151 4.40293 66.2168 4.56852 67.2629 4.92492C68.0111 5.18737 68.664 5.6667 69.1386 6.30178C69.5824 6.93292 69.8541 7.66879 69.9269 8.43689L66.335 9.05551C66.2701 8.67078 66.1491 8.29763 65.9759 7.94802C65.8142 7.63963 65.5544 7.39388 65.2375 7.2496C64.7849 7.06751 64.2981 6.98582 63.8108 7.01016C63.1423 6.96323 62.4736 7.09768 61.8752 7.39928C61.6772 7.52506 61.5164 7.70141 61.4094 7.91014C61.3024 8.11887 61.2531 8.35241 61.2666 8.58658C61.267 8.87826 61.3463 9.1644 61.4961 9.41467C61.718 9.73692 62.0356 9.98125 62.404 10.1131C63.0476 10.3834 63.7159 10.5905 64.3995 10.7317C65.4435 10.9138 66.4664 11.2013 67.4525 11.5897C68.1103 11.8423 68.7158 12.2144 69.2384 12.6872C69.6286 13.0489 69.9175 13.5064 70.0765 14.0142C70.2213 14.5201 70.2919 15.0444 70.286 15.5706C70.3115 16.4379 70.0938 17.295 69.6575 18.045C69.1772 18.7628 68.477 19.3055 67.662 19.5915C66.4866 20.0053 65.2463 20.2047 64.0004 20.1801Z" fill="#2A2929"/>
<path d="M80.1527 7.52902H77.7582L78.7559 5.53357C78.6162 6.18209 78.4765 6.8705 78.3069 7.59883C78.1373 8.32717 77.9577 9.07548 77.7682 9.82377C77.5786 10.5721 77.379 11.3104 77.1795 12.0487L75.1142 19.8309H71.4326L76.102 4.86508H81.799L86.4583 19.8309H82.6171L80.5718 12.0487C80.3722 11.3104 80.1827 10.5721 79.9931 9.81378C79.8035 9.05551 79.6439 8.31722 79.4942 7.58888C79.3446 6.86054 79.2049 6.18209 79.0752 5.53357L80.1527 7.52902ZM82.8466 16.2691H74.8648V13.9144H82.8466V16.2691Z" fill="#2A2929"/>
<path d="M97.374 19.8309L94.2512 13.9144C94.0217 13.4655 93.7822 12.9167 93.5328 12.3181C93.2834 11.7194 93.0439 11.0609 92.8045 10.3825C92.565 9.70404 92.3455 9.04554 92.136 8.38704C91.9265 7.72855 91.7269 7.11994 91.5573 6.55124L92.555 7.64874L90.6594 7.95803L91.0585 6.58117C91.1083 6.98026 91.1582 7.49906 91.2181 8.12763C91.278 8.75619 91.3378 9.45462 91.3877 10.2029C91.4376 10.9512 91.5074 11.7094 91.5573 12.4877C91.6072 13.2659 91.6371 13.9942 91.6571 14.7026C91.677 15.411 91.6571 16.0196 91.6571 16.5385V19.8309H88.3945V4.86508H93.1636L95.9573 9.8537C96.3009 10.5023 96.6106 11.1684 96.8852 11.8491C97.1845 12.5775 97.4539 13.3058 97.7133 14.0342C97.9727 14.7625 98.2022 15.4509 98.3917 16.0895C98.5813 16.728 98.731 17.2368 98.8307 17.6359L98.2321 16.7879L99.579 16.6083V17.8854C99.4792 17.3466 99.3795 16.6881 99.2897 15.8899C99.1999 15.0917 99.1101 14.2337 99.0402 13.3158C98.9704 12.3979 98.9105 11.5099 98.8806 10.6419C98.8507 9.77389 98.8806 9.0156 98.8806 8.34713V4.87507H102.073V19.8409L97.374 19.8309Z" fill="#2A2929"/>
<path d="M104.358 8.0478V4.85507H116.56V8.0478H104.358ZM108.648 4.98478H112.25V19.8309H108.648V4.98478Z" fill="#2A2929"/>
<path d="M118.964 4.85507H122.556V19.8209H118.964V4.85507ZM129.82 13.9643H121.459V10.9711H129.82V13.9643ZM132.364 19.8309H128.772V4.86506H132.364V19.8309Z" fill="#2A2929"/>
<path d="M142.631 20.1801C141.549 20.2004 140.471 20.0281 139.449 19.6713C138.567 19.3577 137.77 18.8417 137.124 18.1647C136.475 17.4567 135.988 16.6157 135.697 15.7003C135.359 14.5987 135.197 13.4504 135.218 12.2981C135.168 10.8155 135.469 9.34202 136.096 7.99789C136.656 6.8853 137.549 5.97503 138.651 5.39384C139.886 4.77056 141.258 4.46534 142.641 4.50586C143.71 4.48972 144.773 4.6585 145.784 5.00472C146.657 5.31732 147.448 5.82197 148.099 6.48136C148.761 7.17314 149.259 8.00522 149.556 8.91581C149.906 10.0084 150.074 11.151 150.054 12.2981C150.101 13.7889 149.804 15.2704 149.186 16.6282C148.655 17.7535 147.782 18.6823 146.692 19.2822C145.436 19.92 144.039 20.2289 142.631 20.1801ZM142.631 17.2368C143.439 17.2839 144.241 17.0781 144.926 16.6482C145.509 16.2376 145.932 15.6385 146.123 14.952C146.376 14.0907 146.494 13.1955 146.473 12.2981C146.494 11.4131 146.373 10.5304 146.113 9.68404C145.911 9.03211 145.492 8.46889 144.926 8.08771C144.225 7.73029 143.449 7.54394 142.661 7.54394C141.874 7.54394 141.098 7.73029 140.397 8.08771C139.827 8.46722 139.404 9.03064 139.199 9.68404C138.94 10.5304 138.818 11.4131 138.84 12.2981C138.818 13.1922 138.936 14.0843 139.189 14.9421C139.386 15.6233 139.804 16.2198 140.377 16.6382C141.038 17.0631 141.816 17.2722 142.601 17.2368H142.631Z" fill="#2A2929"/>
<path d="M151.142 8.0478V4.85507H163.344V8.0478H151.142ZM155.432 4.98478H159.024V19.8309H155.432V4.98478Z" fill="#2A2929"/>
<path d="M171.655 7.52902H169.26L170.258 5.53357C170.131 6.19872 169.982 6.88712 169.809 7.59883C169.639 8.33715 169.46 9.07548 169.27 9.82377C169.08 10.5721 168.881 11.3104 168.681 12.0487L166.616 19.8309H162.915L167.584 4.86508H173.281L177.94 19.8309H174.199L172.203 12.0487C172.004 11.3104 171.814 10.5721 171.635 9.81378C171.455 9.05551 171.285 8.31722 171.126 7.58888C170.966 6.86054 170.836 6.18209 170.707 5.53357L171.655 7.52902ZM174.348 16.2691H166.367V13.9144H174.348V16.2691Z" fill="#2A2929"/>
<path d="M179.896 19.8309V4.86508H186.281C187.759 4.81066 189.231 5.0832 190.591 5.66325C191.658 6.16961 192.52 7.02491 193.036 8.08774C193.596 9.37635 193.862 10.7739 193.814 12.1784C193.864 13.6365 193.549 15.0841 192.896 16.3888C192.303 17.4992 191.383 18.4011 190.262 18.9729C188.983 19.5816 187.577 19.8791 186.161 19.8409L179.896 19.8309ZM183.487 17.9652L181.642 16.9675H185.952C186.818 17.0051 187.68 16.834 188.466 16.4686C189.091 16.1346 189.573 15.585 189.823 14.9221C190.14 14.0502 190.285 13.1254 190.252 12.1984C190.29 11.2929 190.141 10.3893 189.813 9.54441C189.542 8.92471 189.041 8.43453 188.416 8.17753C187.587 7.88301 186.711 7.74761 185.832 7.77845H181.841L183.437 5.68322L183.487 17.9652Z" fill="#2A2929"/>
<path d="M60.5782 29.5188C60.1187 29.5338 59.6627 29.4344 59.2512 29.2295C58.8849 29.0428 58.5827 28.7509 58.3832 28.3914C58.1801 27.9963 58.0742 27.5585 58.0742 27.1143C58.0742 26.6701 58.1801 26.2323 58.3832 25.8372C58.5827 25.4777 58.8849 25.1858 59.2512 24.9991C59.6618 24.7907 60.1179 24.6879 60.5782 24.6998C61.0127 24.6894 61.4445 24.771 61.8453 24.9393C62.1793 25.069 62.4674 25.2946 62.6734 25.5878C62.8718 25.8824 62.9762 26.2303 62.9727 26.5855V26.6953H61.8054V26.5855C61.8145 26.4576 61.7929 26.3293 61.7426 26.2113C61.6923 26.0934 61.6147 25.9891 61.5161 25.907C61.2435 25.7319 60.921 25.6513 60.5982 25.6776C60.3188 25.6688 60.0406 25.7163 59.78 25.8173C59.5791 25.8999 59.4182 26.0573 59.331 26.2563C59.2283 26.5198 59.1807 26.8017 59.1914 27.0844C59.1826 27.3669 59.2301 27.6484 59.331 27.9125C59.4182 28.1115 59.5791 28.2689 59.78 28.3515C60.0406 28.4524 60.3188 28.4999 60.5982 28.4911C60.921 28.5174 61.2435 28.4368 61.5161 28.2617C61.614 28.1792 61.6913 28.0747 61.7415 27.9569C61.7918 27.8391 61.8137 27.7111 61.8054 27.5832V27.4735H62.9727V27.5832C62.9781 27.9387 62.8736 28.2871 62.6734 28.5809C62.4707 28.8795 62.1818 29.1092 61.8453 29.2394C61.4474 29.4211 61.0156 29.5163 60.5782 29.5188Z" fill="black"/>
<path d="M66.5349 29.5188C66.069 29.5338 65.6065 29.4345 65.1879 29.2295C64.8216 29.0427 64.5194 28.7509 64.3199 28.3914C64.123 27.9944 64.0205 27.5574 64.0205 27.1143C64.0205 26.6712 64.123 26.2341 64.3199 25.8372C64.5194 25.4776 64.8216 25.1858 65.1879 24.9991C65.6114 24.8019 66.0728 24.6998 66.5398 24.6998C67.0069 24.6998 67.4683 24.8019 67.8918 24.9991C68.2581 25.1858 68.5603 25.4776 68.7598 25.8372C68.9629 26.2323 69.0688 26.6701 69.0688 27.1143C69.0688 27.5585 68.9629 27.9963 68.7598 28.3914C68.5603 28.7509 68.2581 29.0427 67.8918 29.2295C67.47 29.4357 67.004 29.535 66.5349 29.5188ZM66.5349 28.5211C66.8142 28.5309 67.0927 28.4834 67.353 28.3814C67.5543 28.2959 67.7175 28.1398 67.8119 27.9424C67.9167 27.6794 67.9643 27.3971 67.9516 27.1143C67.9672 26.8313 67.9195 26.5484 67.8119 26.2862C67.7175 26.0888 67.5543 25.9327 67.353 25.8472C67.0927 25.7452 66.8142 25.6976 66.5349 25.7075C66.2554 25.6962 65.9766 25.7438 65.7167 25.8472C65.5158 25.9298 65.3549 26.0872 65.2678 26.2862C65.165 26.5497 65.1174 26.8316 65.1281 27.1143C65.1193 27.3968 65.1668 27.6783 65.2678 27.9424C65.3549 28.1414 65.5158 28.2988 65.7167 28.3814C65.9766 28.4848 66.2554 28.5324 66.5349 28.5211Z" fill="black"/>
<path d="M71.2742 29.4489H70.2266V24.7697H71.344L73.0202 26.9846L73.6587 27.9823H73.7386L73.6887 27.0445V24.7796H74.7363V29.4589H73.6188L71.8928 27.224L71.3041 26.346H71.2343V27.2041L71.2742 29.4489Z" fill="black"/>
<path d="M78.4171 29.5188C77.9576 29.5338 77.5016 29.4344 77.0901 29.2295C76.7238 29.0428 76.4216 28.7509 76.2221 28.3914C76.019 27.9963 75.9131 27.5585 75.9131 27.1143C75.9131 26.6701 76.019 26.2323 76.2221 25.8372C76.4216 25.4777 76.7238 25.1858 77.0901 24.9991C77.5007 24.7907 77.9568 24.6879 78.4171 24.6998C78.8516 24.6894 79.2834 24.771 79.6842 24.9393C80.0164 25.072 80.3038 25.297 80.5123 25.5878C80.7072 25.8836 80.808 26.2314 80.8016 26.5855V26.6953H79.6143V26.5855C79.6234 26.4576 79.6019 26.3293 79.5516 26.2113C79.5013 26.0934 79.4236 25.9891 79.325 25.907C79.0525 25.7319 78.73 25.6513 78.4071 25.6776C78.1278 25.6688 77.8496 25.7163 77.589 25.8173C77.3881 25.8999 77.2271 26.0573 77.14 26.2563C77.0324 26.5185 76.9847 26.8014 77.0003 27.0844C76.9876 27.3672 77.0352 27.6495 77.14 27.9125C77.2271 28.1115 77.3881 28.2689 77.589 28.3515C77.8496 28.4524 78.1278 28.4999 78.4071 28.4911C78.73 28.5174 79.0525 28.4368 79.325 28.2617C79.423 28.1792 79.5002 28.0747 79.5505 27.9569C79.6007 27.8391 79.6226 27.7111 79.6143 27.5832V27.4735H80.7717V27.5832C80.7807 27.9377 80.6796 28.2862 80.4824 28.5809C80.2774 28.8774 79.9892 29.1065 79.6543 29.2394C79.2656 29.417 78.8443 29.5121 78.4171 29.5188Z" fill="black"/>
<path d="M82.9772 29.4489H81.9795V24.7697H82.9772V29.4489ZM85.8906 25.7175H82.2189V24.7697H85.8906V25.7175ZM85.7808 27.5633H82.2189V26.6354H85.7808V27.5633ZM85.8906 29.4489H82.2189V28.5111H85.8906V29.4489Z" fill="black"/>
<path d="M88.115 29.449H87.0674V24.7697H88.115V29.449ZM89.5118 28.1619H87.3966V27.2141H89.3921C89.6185 27.2319 89.8449 27.1796 90.0406 27.0644C90.1184 26.9869 90.1777 26.8928 90.214 26.7891C90.2502 26.6854 90.2626 26.5749 90.2501 26.4658C90.2633 26.3581 90.2512 26.2489 90.2149 26.1467C90.1785 26.0445 90.1188 25.9522 90.0406 25.8771C89.8492 25.751 89.6202 25.6946 89.3921 25.7175H87.3966V24.7697H89.4819C89.8056 24.7639 90.1264 24.8321 90.4197 24.9692C90.677 25.0989 90.8917 25.2998 91.0383 25.5479C91.1934 25.8283 91.2693 26.1456 91.2578 26.4658C91.2683 26.7859 91.1925 27.1029 91.0383 27.3837C90.8945 27.634 90.679 27.8355 90.4197 27.9624C90.1355 28.0951 89.8255 28.1632 89.5118 28.1619Z" fill="black"/>
<path d="M96.696 25.7175H92.1763V24.7697H96.696V25.7175ZM94.9599 29.4489H93.9123V24.7697H94.9599V29.4489Z" fill="black"/>
<path d="M100.596 29.449H99.5986V24.7697H100.596V29.449ZM101.993 28.1619H99.9079V27.2141H101.903C102.13 27.2306 102.356 27.1784 102.552 27.0644C102.626 26.9848 102.682 26.8901 102.717 26.7869C102.751 26.6836 102.763 26.574 102.751 26.4658C102.764 26.359 102.752 26.2509 102.718 26.1491C102.683 26.0473 102.627 25.9544 102.552 25.8771C102.359 25.7553 102.131 25.6992 101.903 25.7175H99.9079V24.7697H101.993C102.337 24.7564 102.679 24.8247 102.991 24.9692C103.246 25.1016 103.46 25.3018 103.609 25.5479C103.76 25.83 103.836 26.1461 103.829 26.4658C103.834 26.7854 103.759 27.1011 103.609 27.3837C103.463 27.6318 103.248 27.8326 102.991 27.9624C102.679 28.1068 102.337 28.1752 101.993 28.1619Z" fill="black"/>
<path d="M105.895 29.4489H104.897V24.7697H105.895V29.4489ZM108.678 29.4489H105.136V28.5111H108.678V29.4489Z" fill="black"/>
<path d="M112.061 29.5188C111.623 29.5335 111.187 29.4517 110.784 29.2794C110.463 29.1298 110.195 28.8863 110.015 28.5809C109.836 28.2469 109.747 27.8722 109.756 27.4934V24.7697H110.804V27.4236C110.795 27.6427 110.836 27.861 110.923 28.0621C111.004 28.2214 111.144 28.343 111.312 28.4014C111.554 28.477 111.807 28.5107 112.061 28.5011C112.314 28.5124 112.567 28.4786 112.809 28.4014C112.893 28.3739 112.971 28.3298 113.038 28.2715C113.105 28.2132 113.159 28.142 113.198 28.0621C113.277 27.8587 113.314 27.6416 113.308 27.4236V24.7697H114.336V27.4934C114.344 27.8722 114.255 28.2469 114.076 28.5809C113.899 28.8883 113.631 29.1326 113.308 29.2794C112.915 29.4493 112.489 29.531 112.061 29.5188Z" fill="black"/>
<path d="M117.708 29.5188C117.302 29.5285 116.897 29.4677 116.511 29.3392C116.208 29.2378 115.944 29.0464 115.753 28.7905C115.574 28.5184 115.484 28.1979 115.493 27.8726H116.541V28.0023C116.534 28.1265 116.569 28.2494 116.641 28.3515C116.726 28.4554 116.847 28.5232 116.98 28.541C117.219 28.5917 117.464 28.6151 117.708 28.6109C117.922 28.6146 118.136 28.598 118.347 28.561C118.462 28.5476 118.57 28.4988 118.656 28.4213C118.718 28.3496 118.75 28.2567 118.746 28.1619C118.751 28.1017 118.739 28.0413 118.713 27.9869C118.687 27.9325 118.646 27.8862 118.596 27.8526C118.444 27.7635 118.273 27.709 118.097 27.693L116.79 27.5034C116.54 27.4663 116.297 27.3888 116.072 27.2739C115.883 27.1747 115.725 27.0265 115.613 26.8449C115.522 26.6621 115.474 26.4606 115.474 26.2562C115.474 26.0519 115.522 25.8504 115.613 25.6676C115.692 25.4839 115.815 25.3228 115.972 25.1987C116.169 25.049 116.393 24.9374 116.631 24.8694C116.956 24.7802 117.291 24.7366 117.628 24.7397C118.031 24.7259 118.432 24.7973 118.806 24.9492C119.094 25.0629 119.339 25.2656 119.504 25.5279C119.664 25.7886 119.743 26.0904 119.734 26.3959H118.676V26.346C118.682 26.2201 118.651 26.0951 118.586 25.9869C118.545 25.9306 118.493 25.8831 118.433 25.8471C118.373 25.8112 118.306 25.7874 118.237 25.7773C118.001 25.7259 117.76 25.7025 117.519 25.7075C117.321 25.7043 117.124 25.721 116.93 25.7574C116.817 25.7735 116.712 25.8261 116.631 25.907C116.569 25.9751 116.537 26.0648 116.541 26.1565C116.524 26.2286 116.524 26.3038 116.541 26.376C116.585 26.4403 116.647 26.4892 116.72 26.5157C116.82 26.553 116.924 26.5797 117.03 26.5955L118.347 26.805C118.638 26.8427 118.92 26.9376 119.175 27.0843C119.367 27.1882 119.526 27.3437 119.634 27.5333C119.736 27.7386 119.784 27.967 119.771 28.196C119.759 28.4251 119.688 28.6471 119.564 28.8403C119.397 29.0818 119.16 29.2663 118.886 29.3691C118.508 29.4993 118.107 29.5502 117.708 29.5188Z" fill="black"/>
<path d="M123.734 29.4489H122.736V24.7697H123.853L125.529 26.9846L126.168 27.9823H126.248V27.0445V24.7796H127.246V29.4589H126.128L124.312 27.2141L123.724 26.3361H123.654V27.1941L123.734 29.4489Z" fill="black"/>
<path d="M129.501 29.4489H128.503V24.7697H129.501V29.4489Z" fill="black"/>
<path d="M132.963 29.5188C132.533 29.5331 132.106 29.4333 131.726 29.2295C131.383 29.0351 131.105 28.7434 130.928 28.3914C130.732 27.9948 130.636 27.5564 130.649 27.1143C130.639 26.6677 130.749 26.2268 130.968 25.8372C131.179 25.4763 131.491 25.185 131.866 24.9991C132.294 24.7912 132.766 24.6886 133.243 24.6998C133.679 24.6916 134.113 24.7696 134.52 24.9293C134.851 25.0483 135.14 25.2637 135.348 25.5479C135.558 25.8369 135.663 26.1887 135.647 26.5456V26.5955H134.48V26.5456C134.489 26.4267 134.466 26.3075 134.413 26.2005C134.36 26.0935 134.28 26.0025 134.18 25.937C133.874 25.7746 133.528 25.7052 133.183 25.7374C132.894 25.7271 132.605 25.7746 132.335 25.8771C132.129 25.959 131.961 26.1158 131.866 26.3161C131.754 26.5774 131.703 26.8604 131.716 27.1442C131.707 27.4268 131.755 27.7083 131.856 27.9723C131.95 28.1697 132.113 28.3258 132.315 28.4113C132.575 28.5133 132.853 28.5608 133.133 28.551C133.424 28.5571 133.715 28.5303 134.001 28.4712C134.173 28.4457 134.33 28.3567 134.44 28.2218C134.528 28.0673 134.57 27.8905 134.56 27.7129V27.5034H135.607V27.6032L134.719 28.4911H134.58C134.527 28.6921 134.432 28.8793 134.3 29.0399C134.158 29.2085 133.977 29.3389 133.771 29.419C133.511 29.5041 133.237 29.5379 132.963 29.5188ZM135.647 27.7528H133.013V26.9846H135.647V27.7528ZM135.647 29.4489H134.649V28.1918L134.57 28.0621V27.0644H135.617L135.647 29.4489Z" fill="black"/>
<path d="M137.902 29.4489H136.854V24.7697H137.902V29.4489ZM140.815 25.7175H137.153V24.7697H140.815V25.7175ZM140.715 27.5633H137.153V26.6354H140.715V27.5633ZM140.815 29.4489H137.153V28.5111H140.815V29.4489Z" fill="black"/>
<path d="M143.04 29.4489H141.993V24.7697H144.577C144.917 24.7607 145.256 24.8183 145.574 24.9392C145.822 25.0326 146.034 25.1998 146.183 25.4182C146.328 25.6439 146.401 25.9083 146.393 26.1764C146.398 26.4038 146.35 26.6293 146.253 26.8349C146.148 27.0212 145.993 27.1735 145.804 27.2739C145.579 27.3943 145.33 27.4625 145.076 27.4735V27.5333C145.252 27.5726 145.414 27.6588 145.545 27.7828C145.656 27.908 145.753 28.0452 145.834 28.1918L146.502 29.4489H145.265L144.617 28.2417C144.566 28.1354 144.498 28.0378 144.417 27.9524C144.342 27.8794 144.249 27.8278 144.148 27.8027C144.002 27.7839 143.854 27.7839 143.709 27.8027H143.02L143.04 29.4489ZM143.04 25.7175V26.9646H144.567C144.759 26.9807 144.951 26.9353 145.116 26.8349C145.231 26.6941 145.294 26.5179 145.294 26.3361C145.294 26.1542 145.231 25.978 145.116 25.8372C144.952 25.7333 144.76 25.6844 144.567 25.6975L143.04 25.7175Z" fill="black"/>
<path d="M148.568 29.4489H147.52V24.7697H148.568V29.4489Z" fill="black"/>
<path d="M150.683 29.4489H149.505L151.551 24.7697H153.047L155.103 29.4489H153.905L152.618 26.4558L152.329 25.7275H152.249L151.96 26.4558L150.683 29.4489ZM153.915 28.4512H150.623V27.5034H153.915V28.4512Z" fill="black"/>
<path d="M158.874 29.4489H157.876V24.7697H158.874V29.4489ZM161.658 29.4489H158.116V28.5111H161.658V29.4489Z" fill="black"/>
<path d="M163.822 29.4489H162.824V24.7697H163.822V29.4489Z" fill="black"/>
<path d="M166.117 29.4489H165.07V24.7697H166.487L167.584 27.0744L168.023 28.1719H168.103L168.532 27.0744L169.59 24.7697H171.016V29.4489H169.969V27.0744V26.346H169.899L169.619 27.0744L168.622 29.1696H167.355L166.357 27.0744L166.087 26.346H166.008V27.0744L166.117 29.4489Z" fill="black"/>
<path d="M173.311 29.4489H172.264V24.7697H173.311V29.4489Z" fill="black"/>
<path d="M178.908 25.7175H174.378V24.7697H178.908V25.7175ZM177.192 29.4489H176.194V24.7697H177.192V29.4489Z" fill="black"/>
<path d="M181.033 29.4489H180.036V24.7697H181.033V29.4489ZM183.947 25.7175H180.275V24.7697H183.947V25.7175ZM183.837 27.5633H180.275V26.6354H183.837V27.5633ZM183.947 29.4489H180.275V28.5111H183.947V29.4489Z" fill="black"/>
<path d="M186.221 29.449H185.173V24.7697H186.221V29.449ZM187.428 29.449H185.433V28.5111H187.428C187.69 28.522 187.951 28.4813 188.196 28.3914C188.294 28.3572 188.383 28.3019 188.457 28.2295C188.532 28.1571 188.589 28.0693 188.625 27.9724C188.812 27.4121 188.812 26.8065 188.625 26.2463C188.586 26.1512 188.527 26.0652 188.454 25.9932C188.38 25.9212 188.292 25.8648 188.196 25.8273C187.948 25.7471 187.689 25.71 187.428 25.7175H185.433V24.7697H187.428C187.879 24.7631 188.326 24.8586 188.735 25.049C189.09 25.2309 189.385 25.5116 189.583 25.8572C189.78 26.2471 189.882 26.6777 189.882 27.1143C189.882 27.5509 189.78 27.9815 189.583 28.3714C189.386 28.7159 189.091 28.9938 188.735 29.1696C188.328 29.3656 187.88 29.4614 187.428 29.449Z" fill="black"/>
</svg>
